<?xml version="1.0" encoding="UTF-8" ?>
<!DOCTYPE svg PUBLIC "-//W3C//DTD SVG 1.1//EN" "http://www.w3.org/Graphics/SVG/1.1/DTD/svg11.dtd">
<svg width="303pt" height="535pt" viewBox="0 0 303 535" version="1.1" xmlns="http://www.w3.org/2000/svg">
<g id="#2121216b">
<path fill="#212121" opacity="0.42" d=" M 152.64 1.67 C 162.07 0.84 171.55 1.43 181.00 1.23 C 188.81 1.22 197.24 0.79 204.19 5.00 C 198.45 3.95 192.75 2.59 186.92 2.15 C 172.55 1.42 158.12 1.93 143.89 4.11 C 146.34 2.09 149.65 2.10 152.64 1.67 Z" />
<path fill="#212121" opacity="0.42" d=" M 101.45 16.28 C 100.96 14.19 104.75 12.90 106.05 14.43 C 104.58 15.20 103.05 15.85 101.45 16.28 Z" />
</g>
<g id="#000000ff">
<path fill="#000000" opacity="1.00" d=" M 143.89 4.11 C 158.12 1.93 172.55 1.42 186.92 2.15 C 192.75 2.59 198.45 3.95 204.19 5.00 C 205.53 5.29 206.84 5.71 208.09 6.30 C 209.56 7.06 211.11 7.69 212.74 8.05 C 215.36 8.67 217.84 9.80 220.10 11.26 C 221.48 12.22 223.04 12.85 224.65 13.33 C 225.22 13.61 226.35 14.19 226.92 14.48 C 228.39 15.53 229.95 16.46 231.63 17.16 C 232.18 17.46 233.28 18.06 233.83 18.37 C 234.68 19.17 235.68 19.81 236.79 20.21 C 237.33 20.53 238.41 21.17 238.95 21.49 C 240.36 22.54 241.86 23.49 243.45 24.26 C 243.75 24.43 244.34 24.77 244.64 24.94 C 248.34 27.85 252.05 30.74 255.90 33.45 C 262.10 38.99 267.99 44.92 273.57 51.08 C 276.75 55.46 279.75 59.97 282.92 64.36 C 283.64 65.46 284.24 66.65 284.79 67.85 C 285.84 70.28 286.91 72.69 288.00 75.10 C 288.18 75.57 288.54 76.51 288.72 76.97 C 289.72 80.08 290.73 83.18 291.85 86.24 C 292.16 87.10 292.42 87.99 292.62 88.89 C 293.40 93.76 294.44 98.59 295.75 103.35 C 295.83 103.73 296.00 104.51 296.08 104.90 C 297.16 112.57 298.24 120.23 299.28 127.90 C 298.51 129.96 298.70 132.19 299.88 134.05 C 300.19 139.97 300.37 145.91 300.61 151.84 C 301.58 168.89 300.56 186.00 298.73 202.96 L 298.64 203.81 C 297.81 213.63 296.71 223.43 296.03 233.27 C 295.95 233.85 295.78 235.02 295.70 235.60 C 294.82 241.41 294.50 247.29 293.80 253.13 L 293.71 253.94 C 292.83 262.91 292.20 271.91 291.75 280.92 C 291.02 293.06 289.31 305.12 288.77 317.28 C 288.37 321.18 288.46 325.13 287.83 329.01 C 286.97 334.17 287.62 339.43 286.91 344.60 C 286.04 350.61 285.88 356.69 285.76 362.75 C 285.22 367.81 284.82 372.90 284.93 378.00 C 285.14 387.42 284.41 396.88 285.73 406.25 C 286.26 413.58 286.87 420.91 287.63 428.22 L 287.71 429.10 C 288.06 433.95 288.87 438.76 289.71 443.55 L 289.81 444.42 C 289.89 446.00 290.14 447.56 290.55 449.10 L 290.71 450.07 C 290.81 451.66 291.11 453.24 291.59 454.78 L 291.78 455.61 C 292.49 461.25 293.45 466.87 294.75 472.41 C 295.10 474.03 295.37 475.66 295.67 477.30 C 292.23 479.31 288.29 478.98 284.94 476.96 C 284.50 476.72 283.63 476.24 283.19 476.00 C 277.56 472.70 271.81 469.60 265.88 466.90 C 265.43 466.67 264.53 466.21 264.08 465.98 C 258.61 461.71 254.50 456.01 249.04 451.73 C 248.11 455.75 247.54 459.84 247.06 463.94 L 246.89 464.70 C 245.56 468.83 244.25 472.98 242.91 477.12 C 242.44 478.39 241.84 479.63 241.14 480.81 C 239.65 483.18 238.13 485.55 236.57 487.89 C 233.05 492.10 229.09 496.01 224.88 499.54 C 222.81 501.03 220.74 502.53 218.69 504.05 C 215.40 506.40 211.73 508.16 207.97 509.60 C 204.61 510.70 201.23 511.73 197.86 512.78 L 197.11 513.00 C 190.03 514.93 182.69 515.76 175.67 517.89 C 171.57 519.87 169.44 524.34 165.57 526.66 C 164.53 527.14 163.61 527.85 162.86 528.72 C 162.42 529.00 161.55 529.55 161.11 529.83 C 155.61 531.05 150.05 531.99 144.52 533.11 C 133.68 534.00 122.83 532.49 111.98 532.60 L 112.87 532.54 L 112.05 531.56 L 112.98 531.25 C 110.06 531.16 107.14 531.04 104.22 530.90 C 95.63 529.71 87.34 527.06 78.97 524.91 C 74.81 523.51 71.14 521.02 67.25 519.04 C 62.80 516.32 58.33 513.63 54.08 510.60 C 51.97 508.92 50.02 507.04 48.32 504.96 C 44.72 499.71 43.10 493.29 43.88 486.96 C 44.10 482.35 45.69 477.89 45.60 473.26 C 45.58 471.01 42.96 470.35 41.18 470.03 L 40.31 469.79 C 39.46 469.10 38.48 468.76 37.39 468.77 C 36.83 468.60 35.71 468.25 35.15 468.08 C 31.12 466.27 26.90 464.99 22.67 463.79 L 21.98 463.51 C 20.51 462.78 19.01 462.11 17.41 461.76 C 16.40 461.48 15.40 461.18 14.42 460.85 C 10.40 458.92 4.89 458.54 2.38 454.50 C 1.78 448.55 4.44 442.81 5.08 436.93 L 5.27 436.20 C 7.81 428.28 9.21 420.05 10.23 411.82 C 10.48 409.98 10.85 408.17 11.25 406.37 C 14.51 390.87 16.77 375.16 17.31 359.31 C 17.83 354.89 18.17 350.45 18.08 346.00 C 17.98 323.92 18.51 301.81 17.13 279.77 C 16.59 258.47 15.01 237.21 13.34 215.97 L 13.27 215.23 C 12.33 202.86 12.74 190.44 12.10 178.05 C 11.86 158.02 10.54 137.82 13.93 117.97 L 14.13 117.24 C 15.83 112.56 17.13 107.76 18.24 102.92 C 18.48 102.43 18.96 101.44 19.20 100.95 C 19.98 100.28 20.37 99.43 20.39 98.41 C 20.74 96.52 21.53 94.74 22.42 93.06 C 23.16 91.87 23.77 90.60 24.12 89.25 C 25.44 85.33 27.31 81.61 29.54 78.13 C 30.59 76.64 31.44 75.03 32.15 73.35 C 32.46 72.81 33.07 71.72 33.37 71.17 C 34.18 70.34 34.84 69.37 35.19 68.25 C 35.66 67.16 36.23 66.10 36.90 65.12 C 40.36 60.43 43.82 55.74 47.39 51.12 C 50.71 47.32 54.26 43.68 58.11 40.41 C 61.89 37.66 65.60 34.84 69.32 32.01 C 70.29 31.35 71.33 30.81 72.39 30.32 C 73.66 29.82 74.83 29.11 75.92 28.28 C 76.48 28.00 77.60 27.43 78.16 27.15 C 79.31 26.85 80.35 26.27 81.21 25.44 C 83.01 24.07 84.98 22.75 87.23 22.28 C 88.26 22.32 89.14 21.97 89.87 21.25 C 90.37 20.97 91.36 20.43 91.86 20.15 C 94.32 19.11 96.79 18.07 99.26 17.04 C 99.81 16.85 100.90 16.47 101.45 16.28 C 103.05 15.85 104.58 15.20 106.05 14.43 C 107.93 13.53 109.90 12.84 111.89 12.24 C 122.18 9.15 132.52 6.19 143.10 4.26 L 143.89 4.11 M 110.90 20.90 C 89.47 28.77 67.59 38.79 52.76 56.79 C 38.69 73.64 29.06 93.87 23.00 114.88 C 16.64 137.40 19.58 160.95 19.77 183.98 C 20.16 209.01 22.31 233.96 23.92 258.94 C 25.41 286.59 25.70 314.30 25.50 341.99 C 25.75 371.25 20.71 400.20 14.81 428.76 C 13.43 436.20 11.26 443.51 10.48 451.06 C 16.54 453.76 22.92 455.62 29.14 457.89 C 35.12 460.01 41.03 462.33 47.13 464.07 C 48.58 460.20 49.27 456.12 50.02 452.08 C 52.11 441.72 54.71 431.47 57.14 421.18 C 57.76 418.95 58.22 416.54 59.76 414.73 C 61.35 412.55 65.52 413.56 65.64 416.37 C 66.00 420.49 64.39 424.45 63.51 428.41 C 60.17 442.15 56.81 455.93 55.07 469.98 C 53.46 478.29 49.65 486.72 51.87 495.31 C 54.96 503.02 62.58 507.56 69.49 511.48 C 87.97 521.59 109.27 524.06 129.94 525.50 C 138.14 525.83 146.41 525.26 154.40 523.31 C 158.90 522.19 163.49 519.72 165.20 515.14 C 169.89 506.86 169.95 497.18 170.87 487.98 C 171.88 475.77 176.70 464.26 177.97 452.11 C 178.91 447.50 179.61 442.86 180.14 438.19 C 180.27 438.79 180.53 439.97 180.66 440.56 C 182.84 438.00 186.97 437.31 188.55 440.93 C 188.92 446.55 186.67 451.86 185.72 457.32 C 183.13 470.51 178.56 483.45 178.51 497.02 C 178.36 500.93 177.38 504.76 177.33 508.69 C 186.89 507.94 196.18 505.14 205.17 501.92 C 220.13 495.47 233.99 483.39 237.72 466.94 C 240.04 459.45 239.25 451.58 240.42 443.93 C 241.04 427.96 240.50 411.98 240.50 396.01 C 240.69 390.78 238.75 385.65 239.62 380.42 C 240.44 378.39 242.04 376.84 243.44 375.20 C 246.43 375.14 249.08 376.80 250.31 379.54 C 250.95 384.89 250.02 390.34 250.86 395.69 C 250.01 406.77 250.78 417.90 250.47 429.00 C 250.60 433.30 249.65 438.08 252.18 441.90 C 260.40 453.71 271.89 463.75 285.80 468.07 C 281.59 439.90 276.86 411.59 277.53 383.00 C 277.34 370.63 278.34 358.29 278.98 345.94 C 280.87 318.28 283.50 290.68 285.53 263.03 C 288.28 223.71 295.54 184.48 292.70 144.94 C 291.77 127.01 289.68 109.07 285.32 91.62 C 283.63 86.10 282.55 80.16 279.17 75.36 L 279.08 74.90 C 278.36 73.67 277.66 72.43 276.88 71.24 C 276.22 68.24 274.75 65.51 272.92 63.07 C 259.91 44.33 241.18 30.22 220.97 20.02 C 208.04 13.33 193.57 9.52 179.01 9.30 C 155.86 8.83 132.56 12.66 110.90 20.90 Z" />
<path fill="#000000" opacity="1.00" d=" M 141.11 38.71 C 153.19 36.75 165.56 36.82 177.65 38.65 C 177.25 38.88 176.85 39.11 176.45 39.34 C 181.35 40.36 186.25 41.60 190.85 43.63 C 200.50 47.97 209.57 53.69 217.28 60.98 C 223.51 66.80 229.30 73.21 233.48 80.69 C 243.00 96.26 249.09 113.57 254.26 130.98 C 259.94 149.32 263.10 168.30 266.19 187.20 C 266.85 198.45 266.75 209.73 266.61 221.00 C 266.57 236.91 262.45 252.38 259.17 267.84 C 254.16 285.74 248.68 303.69 239.93 320.17 C 235.63 328.96 229.91 337.05 223.17 344.13 C 211.59 356.79 196.25 366.81 179.04 369.33 C 168.43 369.88 157.50 370.31 147.24 367.04 C 139.02 364.43 130.62 362.15 122.95 358.13 C 118.39 355.75 113.57 353.77 109.51 350.57 C 103.12 345.65 96.44 340.95 91.20 334.75 C 84.29 327.12 79.01 318.17 74.59 308.92 C 67.16 291.89 62.28 273.86 58.59 255.68 C 57.42 248.22 56.30 240.75 55.47 233.24 C 55.07 218.50 55.02 203.75 55.37 189.00 C 55.38 178.23 57.73 167.66 59.07 157.02 C 62.70 138.18 67.18 119.35 74.77 101.67 C 85.29 79.65 102.06 60.46 123.05 47.88 C 129.41 43.81 136.36 40.59 143.80 39.12 C 142.90 38.98 142.01 38.84 141.11 38.71 M 155.91 50.62 C 156.86 52.54 157.87 54.43 158.65 56.44 C 159.88 59.59 159.05 63.20 160.60 66.27 C 162.86 71.41 167.52 74.77 171.21 78.80 C 173.30 81.08 175.59 83.17 178.14 84.92 C 179.41 86.96 181.20 88.59 183.20 89.90 C 185.04 92.93 187.43 95.61 190.13 97.90 C 192.81 102.81 195.49 107.77 198.99 112.16 C 200.27 115.98 202.06 119.61 204.02 123.13 C 209.88 140.88 214.18 159.19 216.47 177.76 C 217.98 188.44 217.33 199.24 217.45 209.98 C 217.59 219.46 215.69 228.85 216.09 238.34 C 215.65 241.15 215.19 243.96 215.01 246.81 C 214.43 248.38 213.57 249.96 213.73 251.70 C 212.94 254.37 211.82 257.02 211.69 259.84 C 210.22 263.72 209.18 267.78 208.77 271.92 C 207.97 274.24 207.12 276.56 206.61 278.98 C 205.91 280.96 205.18 282.93 204.75 284.99 C 204.04 287.00 203.24 288.99 202.56 291.01 C 202.38 291.52 202.03 292.55 201.86 293.06 C 200.67 295.31 199.58 297.62 198.31 299.83 C 198.23 300.14 198.07 300.77 197.99 301.08 C 194.66 305.74 193.27 311.39 191.78 316.83 C 195.25 321.23 198.62 325.75 201.33 330.66 C 203.44 334.38 203.59 338.86 205.85 342.53 C 212.51 339.79 217.42 334.36 222.19 329.18 C 223.89 327.37 225.03 325.15 226.00 322.89 C 227.49 321.24 228.30 319.14 229.17 317.13 C 231.76 313.77 233.78 309.95 234.83 305.83 C 235.31 304.92 235.75 304.01 236.16 303.08 C 236.90 301.64 237.22 300.05 237.65 298.51 C 240.62 294.37 241.79 289.31 243.54 284.60 C 249.23 268.45 253.27 251.72 255.50 234.74 C 255.76 232.40 255.72 230.04 255.63 227.69 C 257.07 224.31 256.76 220.57 257.07 217.00 C 258.24 199.27 255.18 181.67 252.41 164.23 C 249.15 149.22 245.27 134.32 239.99 119.89 C 239.44 118.57 238.83 117.24 237.86 116.18 C 237.38 113.34 236.81 110.36 234.96 108.05 C 233.50 101.93 230.50 96.22 227.00 91.03 C 225.48 86.34 222.41 82.42 219.38 78.62 C 216.85 75.53 214.45 72.18 211.03 70.01 C 209.23 67.50 207.07 65.15 204.20 63.87 C 201.35 60.86 197.67 58.83 193.86 57.31 C 191.50 54.52 187.90 53.50 184.56 52.44 C 175.34 49.69 165.33 47.24 155.91 50.62 M 120.38 75.52 C 115.88 76.36 111.59 78.07 107.12 79.09 C 104.18 79.88 100.88 80.34 98.65 82.63 C 94.72 86.37 93.13 91.75 90.22 96.21 C 80.32 112.47 75.90 131.23 71.72 149.60 C 68.67 165.57 66.34 181.74 65.90 198.02 C 65.54 203.33 64.66 208.65 65.28 213.98 C 66.08 220.65 66.02 227.38 66.85 234.04 C 68.52 248.97 71.28 263.77 74.61 278.41 C 76.27 286.23 80.50 293.11 83.50 300.44 C 87.75 308.94 91.96 317.58 97.97 325.02 C 100.86 328.77 104.60 331.73 107.58 335.39 C 109.43 337.54 111.17 340.22 114.21 340.69 C 119.87 342.03 125.78 343.83 131.61 342.49 C 139.97 340.49 147.38 335.95 154.81 331.82 C 159.01 329.48 162.92 326.66 166.69 323.69 C 177.63 315.86 184.08 303.54 189.53 291.58 C 197.07 273.10 201.33 253.47 204.81 233.88 C 206.73 223.02 206.98 211.98 207.75 201.01 C 206.88 191.87 206.98 182.64 205.36 173.57 C 202.93 159.19 200.15 144.76 194.93 131.10 C 188.74 114.04 177.93 98.61 163.92 87.07 C 151.92 77.25 135.65 73.17 120.38 75.52 Z" />
</g>
<g id="#1e1e1e67">
<path fill="#1e1e1e" opacity="0.40" d=" M 130.77 5.80 C 134.69 4.21 138.94 4.09 143.10 4.26 C 132.52 6.19 122.18 9.15 111.89 12.24 C 117.26 7.91 124.55 8.13 130.77 5.80 Z" />
</g>
<g id="#2525257d">
<path fill="#252525" opacity="0.49" d=" M 208.09 6.30 C 209.35 4.79 213.19 5.97 212.74 8.05 C 211.11 7.69 209.56 7.06 208.09 6.30 Z" />
</g>
<g id="#004c86ff">
<path fill="#004c86" opacity="1.00" d=" M 110.90 20.90 C 132.56 12.66 155.86 8.83 179.01 9.30 C 193.57 9.52 208.04 13.33 220.97 20.02 C 241.18 30.22 259.91 44.33 272.92 63.07 C 274.75 65.51 276.22 68.24 276.88 71.24 C 271.88 63.96 267.04 56.50 260.81 50.18 C 252.13 41.35 242.21 33.79 231.67 27.32 C 221.16 21.12 210.12 15.45 198.12 12.84 C 184.27 9.83 169.94 10.23 155.92 11.65 C 131.76 13.77 108.56 21.97 86.87 32.51 C 74.54 38.53 62.99 46.55 54.11 57.10 C 43.56 69.58 35.59 84.07 29.53 99.21 C 25.10 111.02 21.38 123.28 20.76 135.96 C 20.32 146.30 20.66 156.65 20.62 167.00 C 20.54 175.02 21.76 182.98 21.60 191.00 C 21.48 198.08 21.73 205.15 22.29 212.21 C 23.13 230.49 25.31 248.70 25.73 267.00 C 25.86 270.31 26.29 273.60 26.52 276.91 C 26.31 301.33 28.14 325.74 26.97 350.15 C 26.56 361.39 25.83 372.61 24.31 383.76 C 21.02 406.00 16.12 427.95 11.74 449.98 C 20.78 454.00 30.33 456.66 39.58 460.13 C 41.81 460.92 44.03 461.72 46.26 462.52 C 48.60 454.96 49.51 447.06 51.49 439.41 C 53.35 432.17 54.70 424.82 56.74 417.63 C 57.56 414.59 59.87 410.80 63.54 411.50 C 67.29 412.19 67.55 416.82 66.85 419.82 C 64.88 428.95 62.35 437.96 60.33 447.08 C 59.02 453.69 57.60 460.28 56.82 466.98 C 55.87 475.43 51.87 483.43 52.64 492.08 C 52.75 495.33 54.50 498.19 56.60 500.56 C 66.64 510.54 80.35 515.88 93.84 519.34 C 108.63 522.85 123.89 524.14 139.07 523.81 C 145.61 523.62 152.43 523.36 158.45 520.51 C 162.13 518.80 163.92 514.92 165.52 511.43 C 168.77 504.21 168.69 496.13 169.56 488.41 C 170.07 482.06 171.49 475.84 173.15 469.70 C 174.95 462.14 176.60 454.53 177.77 446.83 C 177.85 448.58 177.94 450.34 177.97 452.11 C 176.70 464.26 171.88 475.77 170.87 487.98 C 169.95 497.18 169.89 506.86 165.20 515.14 C 163.49 519.72 158.90 522.19 154.40 523.31 C 146.41 525.26 138.14 525.83 129.94 525.50 C 109.27 524.06 87.97 521.59 69.49 511.48 C 62.58 507.56 54.96 503.02 51.87 495.31 C 49.65 486.72 53.46 478.29 55.07 469.98 C 56.81 455.93 60.17 442.15 63.51 428.41 C 64.39 424.45 66.00 420.49 65.64 416.37 C 65.52 413.56 61.35 412.55 59.76 414.73 C 58.22 416.54 57.76 418.95 57.14 421.18 C 54.71 431.47 52.11 441.72 50.02 452.08 C 49.27 456.12 48.58 460.20 47.13 464.07 C 41.03 462.33 35.12 460.01 29.14 457.89 C 22.92 455.62 16.54 453.76 10.48 451.06 C 11.26 443.51 13.43 436.20 14.81 428.76 C 20.71 400.20 25.75 371.25 25.50 341.99 C 25.70 314.30 25.41 286.59 23.92 258.94 C 22.31 233.96 20.16 209.01 19.77 183.98 C 19.58 160.95 16.64 137.40 23.00 114.88 C 29.06 93.87 38.69 73.64 52.76 56.79 C 67.59 38.79 89.47 28.77 110.90 20.90 Z" />
</g>
<g id="#009ff8ff">
<path fill="#009ff8" opacity="1.00" d=" M 155.92 11.65 C 169.94 10.23 184.27 9.83 198.12 12.84 C 210.12 15.45 221.16 21.12 231.67 27.32 C 242.21 33.79 252.13 41.35 260.81 50.18 C 267.04 56.50 271.88 63.96 276.88 71.24 C 277.66 72.43 278.36 73.67 279.08 74.90 C 276.56 80.22 271.51 83.68 268.82 88.87 C 265.56 94.76 263.03 101.00 259.96 106.98 C 256.84 113.01 256.81 119.93 256.16 126.54 C 255.36 126.12 254.56 125.70 253.76 125.28 C 253.90 127.18 254.03 129.09 254.26 130.98 C 249.09 113.57 243.00 96.26 233.48 80.69 C 229.30 73.21 223.51 66.80 217.28 60.98 C 222.80 58.17 229.81 56.92 233.29 51.28 C 235.64 47.55 237.99 42.69 235.70 38.38 C 232.54 31.69 225.48 28.15 218.68 26.22 C 212.76 24.20 205.97 25.40 200.82 28.84 C 197.26 32.44 196.43 37.77 194.46 42.28 C 193.25 42.73 192.05 43.18 190.85 43.63 C 186.25 41.60 181.35 40.36 176.45 39.34 C 176.85 39.11 177.25 38.88 177.65 38.65 C 165.56 36.82 153.19 36.75 141.11 38.71 C 142.01 38.84 142.90 38.98 143.80 39.12 C 136.36 40.59 129.41 43.81 123.05 47.88 C 102.06 60.46 85.29 79.65 74.77 101.67 C 67.18 119.35 62.70 138.18 59.07 157.02 C 57.73 167.66 55.38 178.23 55.37 189.00 C 55.02 203.75 55.07 218.50 55.47 233.24 C 55.09 232.00 54.66 230.78 54.23 229.57 C 53.97 231.90 53.73 234.24 53.50 236.58 C 49.45 237.64 44.28 237.91 41.97 241.98 C 38.86 246.75 40.05 253.99 44.98 257.05 C 49.03 259.33 53.87 258.49 58.31 258.44 C 58.38 257.75 58.52 256.37 58.59 255.68 C 62.28 273.86 67.16 291.89 74.59 308.92 C 79.01 318.17 84.29 327.12 91.20 334.75 C 96.44 340.95 103.12 345.65 109.51 350.57 C 113.57 353.77 118.39 355.75 122.95 358.13 C 130.62 362.15 139.02 364.43 147.24 367.04 C 157.50 370.31 168.43 369.88 179.04 369.33 C 196.25 366.81 211.59 356.79 223.17 344.13 C 229.91 337.05 235.63 328.96 239.93 320.17 C 242.76 323.83 244.20 328.24 245.39 332.65 C 246.83 338.21 251.59 342.32 256.84 344.22 C 262.13 346.11 268.89 342.94 270.25 337.35 C 271.02 334.31 271.04 331.16 271.32 328.06 C 271.75 321.89 273.36 315.76 272.53 309.56 C 271.55 301.90 270.05 294.19 266.94 287.09 C 265.43 283.44 262.31 280.91 259.30 278.54 C 259.13 274.98 258.98 271.40 259.17 267.84 C 262.45 252.38 266.57 236.91 266.61 221.00 C 266.75 209.73 266.85 198.45 266.19 187.20 C 266.12 182.13 266.29 177.05 266.23 171.97 C 269.65 175.17 272.77 178.84 276.97 181.05 C 281.45 183.13 286.51 183.19 291.32 183.87 C 289.63 210.32 285.90 236.59 284.01 263.03 C 281.04 304.67 276.27 346.22 275.83 388.00 C 276.04 403.60 277.36 419.15 279.37 434.61 C 275.63 435.79 271.62 436.89 268.76 439.75 C 265.64 442.86 263.43 446.72 260.91 450.29 C 257.62 446.47 253.32 443.01 251.97 437.95 C 251.16 431.67 251.92 425.31 251.72 419.00 C 251.46 411.23 252.45 403.36 250.86 395.69 C 250.02 390.34 250.95 384.89 250.31 379.54 C 249.08 376.80 246.43 375.14 243.44 375.20 C 242.04 376.84 240.44 378.39 239.62 380.42 C 238.75 385.65 240.69 390.78 240.50 396.01 C 240.50 411.98 241.04 427.96 240.42 443.93 C 239.25 451.58 240.04 459.45 237.72 466.94 C 233.99 483.39 220.13 495.47 205.17 501.92 C 196.18 505.14 186.89 507.94 177.33 508.69 C 177.38 504.76 178.36 500.93 178.51 497.02 C 178.56 483.45 183.13 470.51 185.72 457.32 C 186.67 451.86 188.92 446.55 188.55 440.93 C 186.97 437.31 182.84 438.00 180.66 440.56 C 180.53 439.97 180.27 438.79 180.14 438.19 C 179.61 442.86 178.91 447.50 177.97 452.11 C 177.94 450.34 177.85 448.58 177.77 446.83 C 176.60 454.53 174.95 462.14 173.15 469.70 C 167.11 470.65 161.65 466.21 155.58 467.46 C 147.13 468.95 138.89 472.09 131.58 476.57 C 116.55 487.11 105.34 502.30 97.58 518.80 C 96.34 518.99 95.09 519.17 93.84 519.34 C 80.35 515.88 66.64 510.54 56.60 500.56 C 62.75 496.44 67.63 490.69 71.33 484.33 C 76.00 476.03 74.49 465.63 70.72 457.29 C 68.82 452.38 62.51 451.79 60.33 447.08 C 62.35 437.96 64.88 428.95 66.85 419.82 C 67.55 416.82 67.29 412.19 63.54 411.50 C 59.87 410.80 57.56 414.59 56.74 417.63 C 54.70 424.82 53.35 432.17 51.49 439.41 C 49.51 447.06 48.60 454.96 46.26 462.52 C 44.03 461.72 41.81 460.92 39.58 460.13 C 42.54 454.26 47.18 448.78 47.21 441.88 C 47.26 434.21 49.92 426.72 48.93 419.03 C 48.19 412.50 46.73 405.71 42.58 400.43 C 37.38 393.98 31.00 388.60 24.31 383.76 C 25.83 372.61 26.56 361.39 26.97 350.15 C 29.53 344.76 33.47 340.09 35.44 334.41 C 37.87 327.46 38.72 320.09 39.77 312.84 C 40.42 307.47 41.48 301.98 40.38 296.60 C 38.54 288.54 33.40 281.44 26.52 276.91 C 26.29 273.60 25.86 270.31 25.73 267.00 C 25.31 248.70 23.13 230.49 22.29 212.21 C 22.82 207.80 24.64 203.72 26.90 199.95 C 32.57 190.14 35.90 179.00 36.54 167.69 C 36.72 162.73 36.40 157.66 37.89 152.85 C 40.70 143.26 45.96 134.21 46.22 124.01 C 46.46 117.46 44.19 110.32 38.66 106.40 C 35.47 104.20 32.14 102.12 29.53 99.21 C 35.59 84.07 43.56 69.58 54.11 57.10 C 62.99 46.55 74.54 38.53 86.87 32.51 C 96.36 35.13 105.04 42.87 115.42 40.38 C 122.58 38.67 130.24 37.73 136.45 33.48 C 144.59 27.99 152.61 21.23 155.92 11.65 M 67.38 71.34 C 60.66 72.83 58.71 82.05 63.24 86.76 C 67.95 91.30 77.03 89.28 78.82 82.79 C 80.87 76.27 73.98 69.01 67.38 71.34 M 273.43 228.37 C 268.58 230.56 269.57 237.21 272.20 240.78 C 275.84 246.09 285.19 240.00 282.61 234.42 C 281.44 230.67 277.71 226.54 273.43 228.37 M 68.39 353.41 C 63.94 354.24 59.20 355.59 56.03 359.03 C 52.78 362.64 52.60 367.93 53.56 372.46 C 54.42 376.51 56.15 381.01 60.24 382.76 C 64.78 385.16 69.97 383.13 74.33 381.31 C 78.83 379.49 82.78 375.68 83.75 370.79 C 84.24 366.94 83.06 363.04 81.36 359.62 C 79.03 354.99 73.49 352.21 68.39 353.41 M 195.41 373.43 C 191.58 374.39 188.45 377.35 186.97 380.97 C 185.18 385.24 183.57 389.93 184.39 394.61 C 186.54 404.85 197.46 412.45 207.80 410.80 C 214.75 409.26 219.20 402.42 219.63 395.60 C 220.12 388.81 218.81 380.27 212.02 376.96 C 206.90 374.56 201.08 372.92 195.41 373.43 M 117.37 388.45 C 109.23 390.71 101.25 395.74 97.67 403.67 C 94.44 411.35 93.04 420.03 94.73 428.26 C 96.73 435.91 103.21 441.49 109.95 445.10 C 114.83 447.87 120.66 447.24 126.03 446.99 C 132.80 446.36 140.04 443.89 144.12 438.14 C 146.67 434.59 149.51 430.65 149.08 426.03 C 148.59 418.58 148.20 410.86 145.04 403.97 C 142.65 398.14 137.80 393.78 132.74 390.25 C 128.28 387.19 122.45 387.47 117.37 388.45 M 219.35 444.35 C 213.09 446.34 213.13 454.39 214.38 459.64 C 215.96 465.39 223.93 466.70 228.24 463.24 C 232.84 459.85 233.16 452.91 230.89 448.09 C 228.85 443.85 223.43 443.10 219.35 444.35 Z" />
</g>
<g id="#1b1b1b79">
<path fill="#1b1b1b" opacity="0.47" d=" M 220.10 11.26 C 221.47 9.88 225.10 11.29 224.65 13.33 C 223.04 12.85 221.48 12.22 220.10 11.26 Z" />
</g>
<g id="#0083f9ff">
<path fill="#0083f9" opacity="1.00" d=" M 86.87 32.51 C 108.56 21.97 131.76 13.77 155.92 11.65 C 152.61 21.23 144.59 27.99 136.45 33.48 C 130.24 37.73 122.58 38.67 115.42 40.38 C 105.04 42.87 96.36 35.13 86.87 32.51 Z" />
<path fill="#0083f9" opacity="1.00" d=" M 200.82 28.84 C 205.97 25.40 212.76 24.20 218.68 26.22 C 225.48 28.15 232.54 31.69 235.70 38.38 C 237.99 42.69 235.64 47.55 233.29 51.28 C 229.81 56.92 222.80 58.17 217.28 60.98 C 209.57 53.69 200.50 47.97 190.85 43.63 C 192.05 43.18 193.25 42.73 194.46 42.28 C 196.43 37.77 197.26 32.44 200.82 28.84 Z" />
<path fill="#0083f9" opacity="1.00" d=" M 67.38 71.34 C 73.98 69.01 80.87 76.27 78.82 82.79 C 77.03 89.28 67.95 91.30 63.24 86.76 C 58.71 82.05 60.66 72.83 67.38 71.34 Z" />
<path fill="#0083f9" opacity="1.00" d=" M 279.08 74.90 L 279.17 75.36 C 280.34 81.31 282.84 86.89 284.27 92.77 C 288.24 108.20 290.02 124.11 291.18 139.97 C 291.61 154.59 291.59 169.24 291.32 183.87 C 286.51 183.19 281.45 183.13 276.97 181.05 C 272.77 178.84 269.65 175.17 266.23 171.97 C 266.29 177.05 266.12 182.13 266.19 187.20 C 263.10 168.30 259.94 149.32 254.26 130.98 C 254.03 129.09 253.90 127.18 253.76 125.28 C 254.56 125.70 255.36 126.12 256.16 126.54 C 256.81 119.93 256.84 113.01 259.96 106.98 C 263.03 101.00 265.56 94.76 268.82 88.87 C 271.51 83.68 276.56 80.22 279.08 74.90 Z" />
<path fill="#0083f9" opacity="1.00" d=" M 20.76 135.96 C 21.38 123.28 25.10 111.02 29.53 99.21 C 32.14 102.12 35.47 104.20 38.66 106.40 C 44.19 110.32 46.46 117.46 46.22 124.01 C 45.96 134.21 40.70 143.26 37.89 152.85 C 36.40 157.66 36.72 162.73 36.54 167.69 C 35.90 179.00 32.57 190.14 26.90 199.95 C 24.64 203.72 22.82 207.80 22.29 212.21 C 21.73 205.15 21.48 198.08 21.60 191.00 C 21.76 182.98 20.54 175.02 20.62 167.00 C 20.66 156.65 20.32 146.30 20.76 135.96 Z" />
<path fill="#0083f9" opacity="1.00" d=" M 273.43 228.37 C 277.71 226.54 281.44 230.67 282.61 234.42 C 285.19 240.00 275.84 246.09 272.20 240.78 C 269.57 237.21 268.58 230.56 273.43 228.37 Z" />
<path fill="#0083f9" opacity="1.00" d=" M 54.23 229.57 C 54.66 230.78 55.09 232.00 55.47 233.24 C 56.30 240.75 57.42 248.22 58.59 255.68 C 58.52 256.37 58.38 257.75 58.31 258.44 C 53.87 258.49 49.03 259.33 44.98 257.05 C 40.05 253.99 38.86 246.75 41.97 241.98 C 44.28 237.91 49.45 237.64 53.50 236.58 C 53.73 234.24 53.97 231.90 54.23 229.57 Z" />
<path fill="#0083f9" opacity="1.00" d=" M 239.93 320.17 C 248.68 303.69 254.16 285.74 259.17 267.84 C 258.98 271.40 259.13 274.98 259.30 278.54 C 262.31 280.91 265.43 283.44 266.94 287.09 C 270.05 294.19 271.55 301.90 272.53 309.56 C 273.36 315.76 271.75 321.89 271.32 328.06 C 271.04 331.16 271.02 334.31 270.25 337.35 C 268.89 342.94 262.13 346.11 256.84 344.22 C 251.59 342.32 246.83 338.21 245.39 332.65 C 244.20 328.24 242.76 323.83 239.93 320.17 Z" />
<path fill="#0083f9" opacity="1.00" d=" M 26.52 276.91 C 33.40 281.44 38.54 288.54 40.38 296.60 C 41.48 301.98 40.42 307.47 39.77 312.84 C 38.72 320.09 37.87 327.46 35.44 334.41 C 33.47 340.09 29.53 344.76 26.97 350.15 C 28.14 325.74 26.31 301.33 26.52 276.91 Z" />
<path fill="#0083f9" opacity="1.00" d=" M 68.39 353.41 C 73.49 352.21 79.03 354.99 81.36 359.62 C 83.06 363.04 84.24 366.94 83.75 370.79 C 82.78 375.68 78.83 379.49 74.33 381.31 C 69.97 383.13 64.78 385.16 60.24 382.76 C 56.15 381.01 54.42 376.51 53.56 372.46 C 52.60 367.93 52.78 362.64 56.03 359.03 C 59.20 355.59 63.94 354.24 68.39 353.41 Z" />
<path fill="#0083f9" opacity="1.00" d=" M 195.41 373.43 C 201.08 372.92 206.90 374.56 212.02 376.96 C 218.81 380.27 220.12 388.81 219.63 395.60 C 219.20 402.42 214.75 409.26 207.80 410.80 C 197.46 412.45 186.54 404.85 184.39 394.61 C 183.57 389.93 185.18 385.24 186.97 380.97 C 188.45 377.35 191.58 374.39 195.41 373.43 Z" />
<path fill="#0083f9" opacity="1.00" d=" M 11.74 449.98 C 16.12 427.95 21.02 406.00 24.31 383.76 C 31.00 388.60 37.38 393.98 42.58 400.43 C 46.73 405.71 48.19 412.50 48.93 419.03 C 49.92 426.72 47.26 434.21 47.21 441.88 C 47.18 448.78 42.54 454.26 39.58 460.13 C 30.33 456.66 20.78 454.00 11.74 449.98 Z" />
<path fill="#0083f9" opacity="1.00" d=" M 117.37 388.45 C 122.45 387.47 128.28 387.19 132.74 390.25 C 137.80 393.78 142.65 398.14 145.04 403.97 C 148.20 410.86 148.59 418.58 149.08 426.03 C 149.51 430.65 146.67 434.59 144.12 438.14 C 140.04 443.89 132.80 446.36 126.03 446.99 C 120.66 447.24 114.83 447.87 109.95 445.10 C 103.21 441.49 96.73 435.91 94.73 428.26 C 93.04 420.03 94.44 411.35 97.67 403.67 C 101.25 395.74 109.23 390.71 117.37 388.45 Z" />
<path fill="#0083f9" opacity="1.00" d=" M 268.76 439.75 C 271.62 436.89 275.63 435.79 279.37 434.61 C 280.96 445.07 283.14 455.47 283.91 466.04 C 275.11 462.75 267.08 457.40 260.91 450.29 C 263.43 446.72 265.64 442.86 268.76 439.75 Z" />
<path fill="#0083f9" opacity="1.00" d=" M 219.35 444.35 C 223.43 443.10 228.85 443.85 230.89 448.09 C 233.16 452.91 232.84 459.85 228.24 463.24 C 223.93 466.70 215.96 465.39 214.38 459.64 C 213.13 454.39 213.09 446.34 219.35 444.35 Z" />
<path fill="#0083f9" opacity="1.00" d=" M 56.82 466.98 C 57.60 460.28 59.02 453.69 60.33 447.08 C 62.51 451.79 68.82 452.38 70.72 457.29 C 74.49 465.63 76.00 476.03 71.33 484.33 C 67.63 490.69 62.75 496.44 56.60 500.56 C 54.50 498.19 52.75 495.33 52.64 492.08 C 51.87 483.43 55.87 475.43 56.82 466.98 Z" />
<path fill="#0083f9" opacity="1.00" d=" M 155.58 467.46 C 161.65 466.21 167.11 470.65 173.15 469.70 C 171.49 475.84 170.07 482.06 169.56 488.41 C 168.69 496.13 168.77 504.21 165.52 511.43 C 163.92 514.92 162.13 518.80 158.45 520.51 C 152.43 523.36 145.61 523.62 139.07 523.81 C 123.89 524.14 108.63 522.85 93.84 519.34 C 95.09 519.17 96.34 518.99 97.58 518.80 C 105.34 502.30 116.55 487.11 131.58 476.57 C 138.89 472.09 147.13 468.95 155.58 467.46 Z" />
</g>
<g id="#1d1d1d70">
<path fill="#1d1d1d" opacity="0.44" d=" M 226.92 14.48 C 228.54 13.11 232.37 14.98 231.63 17.16 C 229.95 16.46 228.39 15.53 226.92 14.48 Z" />
</g>
<g id="#1f1f1f69">
<path fill="#1f1f1f" opacity="0.41" d=" M 91.86 20.15 C 93.57 17.71 96.42 17.00 99.26 17.04 C 96.79 18.07 94.32 19.11 91.86 20.15 Z" />
</g>
<g id="#19191971">
<path fill="#191919" opacity="0.44" d=" M 233.83 18.37 C 234.89 16.91 237.71 18.60 236.79 20.21 C 235.68 19.81 234.68 19.17 233.83 18.37 Z" />
</g>
<g id="#1d1d1d7f">
<path fill="#1d1d1d" opacity="0.50" d=" M 87.23 22.28 C 87.54 20.52 88.42 20.17 89.87 21.25 C 89.14 21.97 88.26 22.32 87.23 22.28 Z" />
</g>
<g id="#1f1f1f6a">
<path fill="#1f1f1f" opacity="0.42" d=" M 238.95 21.49 C 240.57 20.04 244.40 22.10 243.45 24.26 C 241.86 23.49 240.36 22.54 238.95 21.49 Z" />
</g>
<g id="#1b1b1b78">
<path fill="#1b1b1b" opacity="0.47" d=" M 78.16 27.15 C 77.33 25.53 80.19 24.03 81.21 25.44 C 80.35 26.27 79.31 26.85 78.16 27.15 Z" />
</g>
<g id="#28282876">
<path fill="#282828" opacity="0.46" d=" M 244.64 24.94 C 249.35 26.05 253.46 29.30 255.90 33.45 C 252.05 30.74 248.34 27.85 244.64 24.94 Z" />
</g>
<g id="#23232376">
<path fill="#232323" opacity="0.46" d=" M 72.39 30.32 C 71.44 28.49 74.72 26.73 75.92 28.28 C 74.83 29.11 73.66 29.82 72.39 30.32 Z" />
</g>
<g id="#2a2a2a81">
<path fill="#2a2a2a" opacity="0.51" d=" M 58.11 40.41 C 60.61 36.37 64.50 32.82 69.32 32.01 C 65.60 34.84 61.89 37.66 58.11 40.41 Z" />
</g>
<g id="#00050dff">
<path fill="#00050d" opacity="1.00" d=" M 155.91 50.62 C 165.33 47.24 175.34 49.69 184.56 52.44 C 187.90 53.50 191.50 54.52 193.86 57.31 C 188.63 55.49 183.18 53.41 177.56 54.46 C 177.88 57.08 178.47 59.83 177.56 62.41 C 176.11 66.61 172.83 69.76 169.93 72.99 C 172.67 76.96 175.49 80.88 178.14 84.92 C 175.59 83.17 173.30 81.08 171.21 78.80 C 167.52 74.77 162.86 71.41 160.60 66.27 C 159.05 63.20 159.88 59.59 158.65 56.44 C 157.87 54.43 156.86 52.54 155.91 50.62 Z" />
</g>
<g id="#2c2c2c7a">
<path fill="#2c2c2c" opacity="0.48" d=" M 36.90 65.12 C 37.94 59.10 42.49 54.40 47.39 51.12 C 43.82 55.74 40.36 60.43 36.90 65.12 Z" />
</g>
<g id="#2424246e">
<path fill="#242424" opacity="0.43" d=" M 273.57 51.08 C 278.64 53.69 281.06 59.28 282.92 64.36 C 279.75 59.97 276.75 55.46 273.57 51.08 Z" />
</g>
<g id="#000d1bff">
<path fill="#000d1b" opacity="1.00" d=" M 177.56 54.46 C 183.18 53.41 188.63 55.49 193.86 57.31 C 197.67 58.83 201.35 60.86 204.20 63.87 C 199.90 61.74 195.41 59.99 190.71 59.00 C 188.99 67.30 182.86 73.41 178.07 80.04 C 179.70 83.37 181.33 86.70 183.20 89.90 C 181.20 88.59 179.41 86.96 178.14 84.92 C 175.49 80.88 172.67 76.96 169.93 72.99 C 172.83 69.76 176.11 66.61 177.56 62.41 C 178.47 59.83 177.88 57.08 177.56 54.46 Z" />
</g>
<g id="#001628ff">
<path fill="#001628" opacity="1.00" d=" M 190.71 59.00 C 195.41 59.99 199.90 61.74 204.20 63.87 C 207.07 65.15 209.23 67.50 211.03 70.01 C 208.21 68.72 205.30 67.40 202.17 67.12 C 198.71 68.88 196.67 72.38 194.34 75.34 C 191.36 79.55 187.71 83.22 184.01 86.80 C 186.25 90.39 188.28 94.10 190.13 97.90 C 187.43 95.61 185.04 92.93 183.20 89.90 C 181.33 86.70 179.70 83.37 178.07 80.04 C 182.86 73.41 188.99 67.30 190.71 59.00 Z" />
</g>
<g id="#001e35ff">
<path fill="#001e35" opacity="1.00" d=" M 194.34 75.34 C 196.67 72.38 198.71 68.88 202.17 67.12 C 205.30 67.40 208.21 68.72 211.03 70.01 C 214.45 72.18 216.85 75.53 219.38 78.62 C 222.41 82.42 225.48 86.34 227.00 91.03 C 221.61 84.65 217.46 76.73 209.53 73.07 C 206.33 80.33 199.42 84.62 193.80 89.80 C 192.45 91.16 190.55 92.72 191.10 94.88 C 192.09 99.79 195.63 103.60 197.67 108.07 C 198.10 109.43 198.53 110.80 198.99 112.16 C 195.49 107.77 192.81 102.81 190.13 97.90 C 188.28 94.10 186.25 90.39 184.01 86.80 C 187.71 83.22 191.36 79.55 194.34 75.34 Z" />
</g>
<g id="#1c1c1c6c">
<path fill="#1c1c1c" opacity="0.42" d=" M 33.37 71.17 C 31.91 70.12 33.61 67.31 35.19 68.25 C 34.84 69.37 34.18 70.34 33.37 71.17 Z" />
</g>
<g id="#1e1e1e6c">
<path fill="#1e1e1e" opacity="0.42" d=" M 284.79 67.85 C 287.26 69.48 287.93 72.31 288.00 75.10 C 286.91 72.69 285.84 70.28 284.79 67.85 Z" />
</g>
<g id="#1d1d1d6d">
<path fill="#1d1d1d" opacity="0.43" d=" M 29.54 78.13 C 28.16 76.51 29.94 72.64 32.15 73.35 C 31.44 75.03 30.59 76.64 29.54 78.13 Z" />
</g>
<g id="#002742ff">
<path fill="#002742" opacity="1.00" d=" M 209.53 73.07 C 217.46 76.73 221.61 84.65 227.00 91.03 C 230.50 96.22 233.50 101.93 234.96 108.05 C 234.38 107.30 233.80 106.55 233.21 105.80 C 230.19 99.45 227.05 92.98 222.17 87.81 C 221.14 86.90 219.97 85.43 218.47 86.31 C 216.57 87.93 215.78 90.44 214.55 92.55 C 209.10 94.19 204.75 98.01 200.07 101.08 C 197.55 102.45 198.01 105.65 197.67 108.07 C 195.63 103.60 192.09 99.79 191.10 94.88 C 190.55 92.72 192.45 91.16 193.80 89.80 C 199.42 84.62 206.33 80.33 209.53 73.07 Z" />
</g>

<g id="#00528bff">
<path fill="#00528b" opacity="1.00" d=" M 279.17 75.36 C 282.55 80.16 283.63 86.10 285.32 91.62 C 289.68 109.07 291.77 127.01 292.70 144.94 C 295.54 184.48 288.28 223.71 285.53 263.03 C 283.50 290.68 280.87 318.28 278.98 345.94 C 278.34 358.29 277.34 370.63 277.53 383.00 C 276.86 411.59 281.59 439.90 285.80 468.07 C 271.89 463.75 260.40 453.71 252.18 441.90 C 249.65 438.08 250.60 433.30 250.47 429.00 C 250.78 417.90 250.01 406.77 250.86 395.69 C 252.45 403.36 251.46 411.23 251.72 419.00 C 251.92 425.31 251.16 431.67 251.97 437.95 C 253.32 443.01 257.62 446.47 260.91 450.29 C 267.08 457.40 275.11 462.75 283.91 466.04 C 283.14 455.47 280.96 445.07 279.37 434.61 C 277.36 419.15 276.04 403.60 275.83 388.00 C 276.27 346.22 281.04 304.67 284.01 263.03 C 285.90 236.59 289.63 210.32 291.32 183.87 C 291.59 169.24 291.61 154.59 291.18 139.97 C 290.02 124.11 288.24 108.20 284.27 92.77 C 282.84 86.89 280.34 81.31 279.17 75.36 Z" />
</g>
<g id="#19191965">
<path fill="#191919" opacity="0.40" d=" M 288.72 76.97 C 291.29 79.38 291.70 82.92 291.85 86.24 C 290.73 83.18 289.72 80.08 288.72 76.97 Z" />
</g>
<g id="#003050ff">
<path fill="#003050" opacity="1.00" d=" M 218.47 86.31 C 219.97 85.43 221.14 86.90 222.17 87.81 C 227.05 92.98 230.19 99.45 233.21 105.80 C 231.49 103.94 229.68 102.15 227.92 100.32 C 221.36 102.78 215.16 106.04 208.73 108.78 C 206.86 109.76 204.41 110.41 203.41 112.44 C 202.71 115.98 203.41 119.62 204.02 123.13 C 202.06 119.61 200.27 115.98 198.99 112.16 C 198.53 110.80 198.10 109.43 197.67 108.07 C 198.01 105.65 197.55 102.45 200.07 101.08 C 204.75 98.01 209.10 94.19 214.55 92.55 C 215.78 90.44 216.57 87.93 218.47 86.31 Z" />
</g>
<g id="#24242471">
<path fill="#242424" opacity="0.44" d=" M 22.42 93.06 C 20.88 91.97 22.22 88.51 24.12 89.25 C 23.77 90.60 23.16 91.87 22.42 93.06 Z" />
</g>
<g id="#14141463">
<path fill="#141414" opacity="0.39" d=" M 292.62 88.89 C 294.92 93.33 295.67 98.40 295.75 103.35 C 294.44 98.59 293.40 93.76 292.62 88.89 Z" />
</g>
<g id="#1c20226e">
<path fill="#1c2022" opacity="0.43" d=" M 19.20 100.95 C 18.22 99.44 18.61 98.59 20.39 98.41 C 20.37 99.43 19.98 100.28 19.20 100.95 Z" />
</g>
<g id="#003a5eff">
<path fill="#003a5e" opacity="1.00" d=" M 208.73 108.78 C 215.16 106.04 221.36 102.78 227.92 100.32 C 229.68 102.15 231.49 103.94 233.21 105.80 C 233.80 106.55 234.38 107.30 234.96 108.05 C 236.81 110.36 237.38 113.34 237.86 116.18 C 235.96 114.36 234.02 112.50 231.71 111.20 C 228.73 111.50 226.17 113.25 223.50 114.46 C 219.24 116.69 214.55 117.97 210.41 120.42 C 209.08 121.31 207.46 122.42 207.34 124.17 C 207.15 128.29 208.64 132.24 209.54 136.21 C 210.46 140.58 211.66 144.87 212.73 149.21 C 213.38 152.23 214.17 155.22 214.77 158.26 C 216.54 169.11 218.30 179.99 219.16 190.96 C 220.01 206.80 219.06 222.74 216.09 238.34 C 215.69 228.85 217.59 219.46 217.45 209.98 C 217.33 199.24 217.98 188.44 216.47 177.76 C 214.18 159.19 209.88 140.88 204.02 123.13 C 203.41 119.62 202.71 115.98 203.41 112.44 C 204.41 110.41 206.86 109.76 208.73 108.78 Z" />
</g>
<g id="#1b323da3">
<path fill="#1b323d" opacity="0.64" d=" M 14.13 117.24 C 13.78 112.18 15.50 107.12 18.24 102.92 C 17.13 107.76 15.83 112.56 14.13 117.24 Z" />
</g>
<g id="#26262671">
<path fill="#262626" opacity="0.44" d=" M 296.08 104.90 C 298.55 108.49 298.36 112.98 299.08 117.10 C 300.19 124.06 301.34 131.05 301.45 138.12 C 301.74 154.10 301.78 170.08 301.56 186.06 C 301.49 191.81 300.29 197.46 299.95 203.19 L 298.73 202.96 C 300.56 186.00 301.58 168.89 300.61 151.84 C 300.37 145.91 300.19 139.97 299.88 134.05 C 300.65 131.99 300.51 129.74 299.28 127.90 C 298.24 120.23 297.16 112.57 296.08 104.90 Z" />
<path fill="#262626" opacity="0.44" d=" M 54.08 510.60 C 58.33 513.63 62.80 516.32 67.25 519.04 C 62.06 518.01 56.72 515.41 54.08 510.60 Z" />
</g>
<g id="#004671ff">
<path fill="#004671" opacity="1.00" d=" M 223.50 114.46 C 226.17 113.25 228.73 111.50 231.71 111.20 C 234.02 112.50 235.96 114.36 237.86 116.18 C 238.83 117.24 239.44 118.57 239.99 119.89 C 245.27 134.32 249.15 149.22 252.41 164.23 C 255.18 181.67 258.24 199.27 257.07 217.00 C 256.76 220.57 257.07 224.31 255.63 227.69 L 255.37 228.48 C 255.22 225.88 254.99 223.29 254.94 220.70 C 256.81 198.62 253.80 176.43 248.34 155.04 C 248.20 154.36 247.93 152.98 247.80 152.29 C 247.38 145.93 244.91 140.04 243.09 134.01 C 241.79 129.23 240.28 123.78 235.73 121.06 C 232.80 121.04 230.07 122.30 227.40 123.36 C 221.95 125.72 216.34 127.71 210.76 129.74 C 210.33 131.89 209.88 134.04 209.54 136.21 C 208.64 132.24 207.15 128.29 207.34 124.17 C 207.46 122.42 209.08 121.31 210.41 120.42 C 214.55 117.97 219.24 116.69 223.50 114.46 Z" />
</g>
<g id="#1b1c1d6c">
<path fill="#1b1c1d" opacity="0.42" d=" M 11.24 131.94 C 11.58 127.25 11.02 121.99 13.93 117.97 C 10.54 137.82 11.86 158.02 12.10 178.05 C 12.74 190.44 12.33 202.86 13.27 215.23 C 11.88 213.97 11.68 212.09 11.59 210.33 C 10.95 184.21 11.53 158.07 11.24 131.94 Z" />
</g>
<g id="#005487ff">
<path fill="#005487" opacity="1.00" d=" M 227.40 123.36 C 230.07 122.30 232.80 121.04 235.73 121.06 C 240.28 123.78 241.79 129.23 243.09 134.01 C 241.49 132.16 239.71 129.79 236.98 129.94 C 232.05 129.98 227.67 132.54 223.07 133.97 C 219.98 135.14 216.55 135.78 213.89 137.85 C 212.27 141.34 212.80 145.44 212.73 149.21 C 211.66 144.87 210.46 140.58 209.54 136.21 C 209.88 134.04 210.33 131.89 210.76 129.74 C 216.34 127.71 221.95 125.72 227.40 123.36 Z" />
</g>
<g id="#2f2f2fd9">
<path fill="#2f2f2f" opacity="0.85" d=" M 299.28 127.90 C 300.51 129.74 300.65 131.99 299.88 134.05 C 298.70 132.19 298.51 129.96 299.28 127.90 Z" />
</g>
<g id="#00639cff">
<path fill="#00639c" opacity="1.00" d=" M 223.07 133.97 C 227.67 132.54 232.05 129.98 236.98 129.94 C 239.71 129.79 241.49 132.16 243.09 134.01 C 244.91 140.04 247.38 145.93 247.80 152.29 C 246.48 148.38 245.27 144.36 243.12 140.82 C 241.49 138.03 237.91 139.92 235.45 140.20 C 228.91 142.17 221.82 143.29 215.99 147.00 C 214.62 150.57 214.79 154.50 214.77 158.26 C 214.17 155.22 213.38 152.23 212.73 149.21 C 212.80 145.44 212.27 141.34 213.89 137.85 C 216.55 135.78 219.98 135.14 223.07 133.97 Z" />
</g>
<g id="#0071b2ff">
<path fill="#0071b2" opacity="1.00" d=" M 235.45 140.20 C 237.91 139.92 241.49 138.03 243.12 140.82 C 245.27 144.36 246.48 148.38 247.80 152.29 C 247.93 152.98 248.20 154.36 248.34 155.04 C 246.70 153.42 245.24 151.22 242.95 150.54 C 237.70 150.68 233.56 154.76 228.40 155.34 C 225.15 155.92 221.48 155.62 218.73 157.73 C 216.41 165.74 219.29 174.00 220.02 182.04 C 220.70 190.37 222.54 198.64 221.98 207.04 C 221.45 216.62 219.80 226.08 218.52 235.58 C 217.85 240.51 216.80 245.39 215.24 250.12 C 215.18 249.29 215.06 247.64 215.01 246.81 C 215.19 243.96 215.65 241.15 216.09 238.34 C 219.06 222.74 220.01 206.80 219.16 190.96 C 218.30 179.99 216.54 169.11 214.77 158.26 C 214.79 154.50 214.62 150.57 215.99 147.00 C 221.82 143.29 228.91 142.17 235.45 140.20 Z" />
<path fill="#0071b2" opacity="1.00" d=" M 78.97 524.91 C 87.34 527.06 95.63 529.71 104.22 530.90 C 101.01 530.94 97.80 531.19 94.58 531.21 L 93.79 530.74 C 92.82 529.96 91.61 529.64 90.39 529.74 C 89.09 529.82 87.98 529.46 87.04 528.66 C 86.56 528.45 85.59 528.02 85.11 527.80 C 82.80 527.56 80.88 526.09 78.97 524.91 Z" />
</g>
<g id="#007dc4ff">
<path fill="#007dc4" opacity="1.00" d=" M 228.40 155.34 C 233.56 154.76 237.70 150.68 242.95 150.54 C 245.24 151.22 246.70 153.42 248.34 155.04 C 253.80 176.43 256.81 198.62 254.94 220.70 C 252.85 232.25 252.12 244.13 248.29 255.32 C 247.54 257.06 246.81 259.33 244.72 259.84 C 240.54 261.07 236.28 259.40 232.12 258.91 C 227.75 258.14 223.16 258.68 218.94 257.16 C 216.38 256.34 215.03 253.84 213.73 251.70 C 213.57 249.96 214.43 248.38 215.01 246.81 C 215.06 247.64 215.18 249.29 215.24 250.12 C 216.80 245.39 217.85 240.51 218.52 235.58 C 219.80 226.08 221.45 216.62 221.98 207.04 C 222.54 198.64 220.70 190.37 220.02 182.04 C 219.29 174.00 216.41 165.74 218.73 157.73 C 221.48 155.62 225.15 155.92 228.40 155.34 Z" />
</g>
<g id="#1d1d1d69">
<path fill="#1d1d1d" opacity="0.41" d=" M 296.03 233.27 C 296.71 223.43 297.81 213.63 298.64 203.81 C 299.27 212.49 298.10 221.13 297.45 229.77 C 297.41 231.08 296.67 232.18 296.03 233.27 Z" />
</g>
<g id="#2828285d">
<path fill="#282828" opacity="0.36" d=" M 13.34 215.97 C 15.01 237.21 16.59 258.47 17.13 279.77 C 16.96 283.17 16.68 286.58 16.69 289.99 C 16.86 307.00 16.77 324.00 16.78 341.01 C 16.67 347.11 16.71 353.23 17.31 359.31 C 16.77 375.16 14.51 390.87 11.25 406.37 C 11.33 397.72 13.69 389.34 15.00 380.85 C 17.49 337.60 15.85 294.27 15.17 250.99 C 14.94 245.31 13.56 239.74 13.39 234.06 C 13.17 228.03 13.31 222.00 13.34 215.97 Z" />
</g>
<g id="#006dacff">
<path fill="#006dac" opacity="1.00" d=" M 248.29 255.32 C 252.12 244.13 252.85 232.25 254.94 220.70 C 254.99 223.29 255.22 225.88 255.37 228.48 C 254.02 234.11 253.60 239.90 252.51 245.59 C 251.55 250.70 250.10 255.70 248.89 260.76 C 247.08 265.26 245.67 269.99 243.14 274.16 C 242.22 275.92 239.97 275.56 238.32 275.82 C 229.32 276.59 221.09 272.28 212.50 270.45 C 212.17 266.92 211.81 263.38 211.69 259.84 C 211.82 257.02 212.94 254.37 213.73 251.70 C 215.03 253.84 216.38 256.34 218.94 257.16 C 223.16 258.68 227.75 258.14 232.12 258.91 C 236.28 259.40 240.54 261.07 244.72 259.84 C 246.81 259.33 247.54 257.06 248.29 255.32 Z" />
</g>
<g id="#003e65ff">
<path fill="#003e65" opacity="1.00" d=" M 255.37 228.48 L 255.63 227.69 C 255.72 230.04 255.76 232.40 255.50 234.74 C 253.27 251.72 249.23 268.45 243.54 284.60 C 241.79 289.31 240.62 294.37 237.65 298.51 C 235.59 299.77 233.36 302.11 230.72 301.18 C 225.22 299.30 220.11 296.45 214.77 294.17 C 210.62 292.20 205.11 290.42 204.75 284.99 C 205.18 282.93 205.91 280.96 206.61 278.98 C 207.40 281.63 208.34 284.63 211.01 285.96 C 215.86 288.73 221.26 290.34 226.32 292.68 C 229.23 293.79 232.18 295.54 235.40 295.28 C 239.55 291.55 241.58 286.17 243.12 280.96 C 245.64 274.41 248.09 267.78 248.89 260.76 C 250.10 255.70 251.55 250.70 252.51 245.59 C 253.60 239.90 254.02 234.11 255.37 228.48 Z" />
</g>
<g id="#19191950">
<path fill="#191919" opacity="0.31" d=" M 293.80 253.13 C 294.50 247.29 294.82 241.41 295.70 235.60 C 295.86 241.42 296.74 247.81 293.80 253.13 Z" />
</g>
<g id="#22222268">
<path fill="#222222" opacity="0.41" d=" M 291.75 280.92 C 292.20 271.91 292.83 262.91 293.71 253.94 C 293.64 257.91 293.96 261.89 293.51 265.85 C 291.95 275.15 293.30 284.62 292.04 293.95 C 290.93 301.72 291.75 309.86 288.77 317.28 C 289.31 305.12 291.02 293.06 291.75 280.92 Z" />
</g>
<g id="#005c92ff">
<path fill="#005c92" opacity="1.00" d=" M 208.77 271.92 C 209.18 267.78 210.22 263.72 211.69 259.84 C 211.81 263.38 212.17 266.92 212.50 270.45 C 221.09 272.28 229.32 276.59 238.32 275.82 C 239.97 275.56 242.22 275.92 243.14 274.16 C 245.67 269.99 247.08 265.26 248.89 260.76 C 248.09 267.78 245.64 274.41 243.12 280.96 C 240.55 283.60 238.01 288.07 233.71 287.30 C 228.52 286.51 223.95 283.77 219.09 281.97 C 216.05 280.71 212.78 279.87 210.06 277.97 C 209.16 276.08 209.01 273.95 208.77 271.92 Z" />
</g>
<g id="#004c79ff">
<path fill="#004c79" opacity="1.00" d=" M 206.61 278.98 C 207.12 276.56 207.97 274.24 208.77 271.92 C 209.01 273.95 209.16 276.08 210.06 277.97 C 212.78 279.87 216.05 280.71 219.09 281.97 C 223.95 283.77 228.52 286.51 233.71 287.30 C 238.01 288.07 240.55 283.60 243.12 280.96 C 241.58 286.17 239.55 291.55 235.40 295.28 C 232.18 295.54 229.23 293.79 226.32 292.68 C 221.26 290.34 215.86 288.73 211.01 285.96 C 208.34 284.63 207.40 281.63 206.61 278.98 Z" />
</g>
<g id="#444546ce">
<path fill="#444546" opacity="0.81" d=" M 17.13 279.77 C 18.51 301.81 17.98 323.92 18.08 346.00 C 18.17 350.45 17.83 354.89 17.31 359.31 C 16.71 353.23 16.67 347.11 16.78 341.01 C 16.77 324.00 16.86 307.00 16.69 289.99 C 16.68 286.58 16.96 283.17 17.13 279.77 Z" />
</g>
<g id="#003151ff">
<path fill="#003151" opacity="1.00" d=" M 202.56 291.01 C 203.24 288.99 204.04 287.00 204.75 284.99 C 205.11 290.42 210.62 292.20 214.77 294.17 C 220.11 296.45 225.22 299.30 230.72 301.18 C 233.36 302.11 235.59 299.77 237.65 298.51 C 237.22 300.05 236.90 301.64 236.16 303.08 C 234.11 304.84 231.95 306.47 229.83 308.16 C 222.46 305.17 215.88 300.61 208.61 297.39 C 205.73 296.24 203.41 294.06 202.56 291.01 Z" />
</g>
<g id="#00253fff">
<path fill="#00253f" opacity="1.00" d=" M 201.86 293.06 C 202.03 292.55 202.38 291.52 202.56 291.01 C 203.41 294.06 205.73 296.24 208.61 297.39 C 215.88 300.61 222.46 305.17 229.83 308.16 C 231.95 306.47 234.11 304.84 236.16 303.08 C 235.75 304.01 235.31 304.92 234.83 305.83 C 233.00 308.62 231.12 311.53 228.42 313.56 C 227.02 314.58 225.30 313.56 223.92 313.07 C 216.18 309.41 209.22 304.37 202.10 299.68 C 201.96 297.47 201.82 295.27 201.86 293.06 Z" />
</g>
<g id="#00192eff">
<path fill="#00192e" opacity="1.00" d=" M 198.31 299.83 C 199.58 297.62 200.67 295.31 201.86 293.06 C 201.82 295.27 201.96 297.47 202.10 299.68 C 209.22 304.37 216.18 309.41 223.92 313.07 C 225.30 313.56 227.02 314.58 228.42 313.56 C 231.12 311.53 233.00 308.62 234.83 305.83 C 233.78 309.95 231.76 313.77 229.17 317.13 C 227.31 318.69 225.34 320.23 223.01 320.99 C 217.55 318.43 213.30 313.96 208.19 310.81 C 203.90 308.17 200.08 304.67 198.31 299.83 Z" />
</g>
<g id="#00101fff">
<path fill="#00101f" opacity="1.00" d=" M 197.99 301.08 C 198.07 300.77 198.23 300.14 198.31 299.83 C 200.08 304.67 203.90 308.17 208.19 310.81 C 213.30 313.96 217.55 318.43 223.01 320.99 C 225.34 320.23 227.31 318.69 229.17 317.13 C 228.30 319.14 227.49 321.24 226.00 322.89 C 223.33 325.60 220.37 327.99 217.37 330.31 C 212.15 324.65 206.91 318.99 201.09 313.94 C 199.68 312.63 198.18 311.36 197.21 309.68 C 196.68 306.80 197.38 303.89 197.99 301.08 Z" />
</g>
<g id="#000711ff">
<path fill="#000711" opacity="1.00" d=" M 191.78 316.83 C 193.27 311.39 194.66 305.74 197.99 301.08 C 197.38 303.89 196.68 306.80 197.21 309.68 C 198.18 311.36 199.68 312.63 201.09 313.94 C 206.91 318.99 212.15 324.65 217.37 330.31 C 220.37 327.99 223.33 325.60 226.00 322.89 C 225.03 325.15 223.89 327.37 222.19 329.18 C 217.42 334.36 212.51 339.79 205.85 342.53 C 203.59 338.86 203.44 334.38 201.33 330.66 C 198.62 325.75 195.25 321.23 191.78 316.83 Z" />
</g>
<g id="#2f2f2f68">
<path fill="#2f2f2f" opacity="0.41" d=" M 285.76 362.75 C 285.88 356.69 286.04 350.61 286.91 344.60 C 287.87 351.37 287.08 358.20 287.09 365.00 C 286.63 378.68 286.43 392.37 287.14 406.05 C 287.56 413.43 287.77 420.83 287.63 428.22 C 286.87 420.91 286.26 413.58 285.73 406.25 C 286.51 391.77 286.44 377.23 285.76 362.75 Z" />
</g>
<g id="#424242d0">
<path fill="#424242" opacity="0.82" d=" M 284.93 378.00 C 284.82 372.90 285.22 367.81 285.76 362.75 C 286.44 377.23 286.51 391.77 285.73 406.25 C 284.41 396.88 285.14 387.42 284.93 378.00 Z" />
</g>
<g id="#13141461">
<path fill="#131414" opacity="0.38" d=" M 7.65 422.47 C 8.28 418.87 8.42 415.08 10.23 411.82 C 9.21 420.05 7.81 428.28 5.27 436.20 C 5.37 431.52 6.91 427.06 7.65 422.47 Z" />
</g>
<g id="#12121255">
<path fill="#121212" opacity="0.33" d=" M 287.71 429.10 L 288.66 429.02 C 289.12 433.85 289.92 438.68 289.71 443.55 C 288.87 438.76 288.06 433.95 287.71 429.10 Z" />
</g>
<g id="#20202061">
<path fill="#202020" opacity="0.38" d=" M 1.81 447.67 C 2.81 444.07 2.90 440.09 5.08 436.93 C 4.44 442.81 1.78 448.55 2.38 454.50 C 4.89 458.54 10.40 458.92 14.42 460.85 C 10.81 460.32 6.97 460.13 3.71 458.36 C 0.15 455.99 0.99 451.21 1.81 447.67 Z" />
</g>
<g id="#1818185e">
<path fill="#181818" opacity="0.37" d=" M 289.81 444.42 C 291.87 444.43 291.95 448.06 290.55 449.10 C 290.14 447.56 289.89 446.00 289.81 444.42 Z" />
</g>
<g id="#1c1c1c68">
<path fill="#1c1c1c" opacity="0.41" d=" M 290.71 450.07 C 292.65 450.27 293.06 453.70 291.59 454.78 C 291.11 453.24 290.81 451.66 290.71 450.07 Z" />
</g>
<g id="#3d4245a1">
<path fill="#3d4245" opacity="0.63" d=" M 249.04 451.73 C 254.50 456.01 258.61 461.71 264.08 465.98 C 257.79 465.21 255.03 458.45 250.04 455.28 C 249.22 458.22 248.46 461.20 247.06 463.94 C 247.54 459.84 248.11 455.75 249.04 451.73 Z" />
</g>
<g id="#1d1d1e65">
<path fill="#1d1d1e" opacity="0.40" d=" M 291.78 455.61 C 294.38 460.77 294.75 466.72 294.75 472.41 C 293.45 466.87 292.49 461.25 291.78 455.61 Z" />
</g>
<g id="#20252977">
<path fill="#202529" opacity="0.47" d=" M 17.41 461.76 C 19.01 462.11 20.51 462.78 21.98 463.51 C 20.75 465.10 16.93 463.83 17.41 461.76 Z" />
</g>
<g id="#1a1d1f72">
<path fill="#1a1d1f" opacity="0.45" d=" M 22.67 463.79 C 26.90 464.99 31.12 466.27 35.15 468.08 C 30.78 467.43 26.11 466.84 22.67 463.79 Z" />
</g>
<g id="#25252579">
<path fill="#252525" opacity="0.47" d=" M 242.91 477.12 C 244.25 472.98 245.56 468.83 246.89 464.70 C 247.85 469.24 245.55 473.59 242.91 477.12 Z" />
</g>
<g id="#21212180">
<path fill="#212121" opacity="0.50" d=" M 265.88 466.90 C 271.81 469.60 277.56 472.70 283.19 476.00 C 276.84 474.33 270.63 471.53 265.88 466.90 Z" />
</g>
<g id="#21212178">
<path fill="#212121" opacity="0.47" d=" M 37.39 468.77 C 38.48 468.76 39.46 469.10 40.31 469.79 C 38.83 470.81 37.85 470.47 37.39 468.77 Z" />
</g>
<g id="#26262770">
<path fill="#262627" opacity="0.44" d=" M 41.18 470.03 C 42.96 470.35 45.58 471.01 45.60 473.26 C 45.69 477.89 44.10 482.35 43.88 486.96 C 43.10 493.29 44.72 499.71 48.32 504.96 C 45.18 503.45 43.83 500.05 43.50 496.78 C 42.86 489.55 43.60 482.30 43.84 475.07 C 44.02 472.97 42.11 471.68 41.18 470.03 Z" />
</g>
<g id="#2424248d">
<path fill="#242424" opacity="0.55" d=" M 284.94 476.96 C 288.29 478.98 292.23 479.31 295.67 477.30 C 294.27 478.57 293.18 480.75 290.97 480.46 C 288.30 480.88 286.45 478.80 284.94 476.96 Z" />
</g>
<g id="#28282884">
<path fill="#282828" opacity="0.52" d=" M 236.57 487.89 C 238.13 485.55 239.65 483.18 241.14 480.81 C 241.19 483.97 239.46 486.63 236.57 487.89 Z" />
</g>
<g id="#25252583">
<path fill="#252525" opacity="0.51" d=" M 218.69 504.05 C 220.74 502.53 222.81 501.03 224.88 499.54 C 223.80 502.16 221.50 503.78 218.69 504.05 Z" />
</g>
<g id="#1f1f1f65">
<path fill="#1f1f1f" opacity="0.40" d=" M 197.86 512.78 C 201.23 511.73 204.61 510.70 207.97 509.60 C 205.55 512.71 201.46 512.83 197.86 512.78 Z" />
</g>
<g id="#16161656">
<path fill="#161616" opacity="0.34" d=" M 175.67 517.89 C 182.69 515.76 190.03 514.93 197.11 513.00 C 195.42 514.14 193.61 515.14 191.58 515.51 C 186.33 516.61 181.05 517.76 175.67 517.89 Z" />
</g>
<g id="#22262876">
<path fill="#222628" opacity="0.46" d=" M 162.86 528.72 C 163.61 527.85 164.53 527.14 165.57 526.66 C 166.68 528.14 164.02 530.15 162.86 528.72 Z" />
</g>
<g id="#21414f60">
<path fill="#21414f" opacity="0.38" d=" M 85.11 527.80 C 85.59 528.02 86.56 528.45 87.04 528.66 L 86.26 529.14 L 85.27 528.70 L 85.11 527.80 Z" />
</g>
<g id="#0d2d3faa">
<path fill="#0d2d3f" opacity="0.67" d=" M 144.52 533.11 C 150.05 531.99 155.61 531.05 161.11 529.83 C 156.24 532.91 150.19 534.01 144.52 533.11 Z" />
</g>
<g id="#2c4b59a7">
<path fill="#2c4b59" opacity="0.65" d=" M 94.58 531.21 C 97.80 531.19 101.01 530.94 104.22 530.90 C 107.14 531.04 110.06 531.16 112.98 531.25 L 112.05 531.56 L 112.87 532.54 C 106.81 531.65 100.55 532.77 94.58 531.21 Z" />
</g>
</svg>
